<svg id="Layer_1" xmlns="http://www.w3.org/2000/svg" viewBox="0 0 1002 511"><style>.st0{opacity:.4;fill-rule:evenodd;clip-rule:evenodd;fill:#fff}</style><path id="about-body-bg" class="st0" d="M639.7 93.5c4.7 12.4 1.5 16.1 10.4 26.4 49.1-23.4 118.6-23.2 171.5-9.2 44.1 11.6 72.3 41.6 77.4 84.5 2.9 24-2.5 24.4-7.7 48 37.5 14.4 47.8 10.6 75.3 35.2 43.6 39.1 37.7 100.5-10.9 131.3-24.5 15.5-45.9 11.9-72.9 16.8-40.6 129-217.9 79.6-249.8-15.5-.6 16.3-44.6 33-61.4 9.8-10.2 36.7-18.3 48.3-43.6 59.8-28.3 12.8-47.7 7.6-77-6.3-11.2-9.7-19.4-13.1-27.8-24.9-8.5-12-8.2-26.1-14.8-30.9-48.5 27.9-71.6 34.9-115.5 13.9-14.7 13-19.5 37.1-62.4 40.6-14.9 1.2-25.4 2.6-43.5-7.1l-23.2-17c-.6-.6-2.1-2.5-2.5-3.1-9.7-11.5-5.8 2.5-33.6 8.1-48.5 9.8-93.8-3.5-116.2-48.8-17.9-36.1 2.5-66.2 29-89.4-2.3-17.7-14-26.8-.8-53.5 9.8-19.9 25.9-23.4 40.3-32.6-2.7-6.3-5.4-17.6-7.3-22.8 12.7-105.2 99.9-125.6 184.2-98.4C280.3 12 390.6 36.6 425.7 76.8c94-112.6 179.8-73.4 214 16.7"/></svg>