<svg id="header-bee" xmlns="http://www.w3.org/2000/svg" viewBox="0 0 132 118"><style>.st0{fill:#1b1a1f}.st1{fill:#ffca26}.st2{opacity:.4;fill:#fff}.st3{opacity:.5}.st3,.st4{fill:#fff}</style><g id="header-bee-tail"><path class="st0" d="M52.8 58.2c-1.4.5-2.8 1.1-4.2 1.8-.8.4-1.7 1-2.6 1.6-.9 4.1-.6 10 1.7 16.4 1.6 4.7 4.2 9.6 8.1 14.2 3.4 4.1 7.7 7.9 13.2 11.1 1.4-.5 2.7-1.1 4-1.8 1.2-.6 2.4-1.3 3.6-2.1-18-10.3-24.7-27.8-23.8-41.2zm35 8.6C83.1 58.8 73 54.9 62 55.9h.4c.4 14.8 7.1 27.6 21.3 37 6.9-8 8.8-18.1 4.1-26.1zM43.7 95.6c-2.1-2.6-3.9-5.5-5.2-8.7-2.2-5.1-3.1-10.8-2.1-16.7.8-1.1-7.5 14.3-3.9 22.5l-8.7 8.5 11.9-3.4c4.8 5.4 12.4 8.2 20.7 8-4.5-2.1-9-5.6-12.7-10.2z"/><path class="st1" d="M84 92.9c-14.2-9.4-20.9-22.2-21.3-37-3.3.3-6.6 1.1-9.9 2.3-.8 13.4 5.9 30.9 23.7 41.2.1-.1.2-.2.3-.2.1-.1.2-.1.2-.2.3-.2.7-.5 1-.7.1 0 .1-.1.2-.1 2.2-1.6 4.2-3.4 5.8-5.3z"/><path class="st1" d="M55.7 92.3c-3.9-4.6-6.5-9.5-8.1-14.2-2.2-6.5-2.6-12.4-1.6-16.5-4 2.4-7.2 5.4-9.6 8.7-1 5.9 0 11.6 2.1 16.7 1.3 3.2 3.1 6.1 5.2 8.7 3.6 4.5 8.2 8.1 12.8 10.2 4.1-.1 8.3-.9 12.4-2.5-5.5-3.3-9.8-7.1-13.2-11.1z"/></g><path id="header-bee-wing-left" class="st2" d="M68.4 35.2c-7.6-13.4-19.7-21.3-27.2-17.6-7.5 3.7-7.4 17.6.1 31C48.8 62 61 69.8 68.5 66.1c7.5-3.7 7.4-17.5-.1-30.9z"/><path id="header-bee-wing-right" class="st3" d="M56.8 35.8c-14.2-7.2-29.6-6.3-34.3 1.9-4.7 8.2 3 20.7 17.3 27.8 14.2 7.2 29.6 6.3 34.3-1.9C78.7 55.5 71 43 56.8 35.8z"/><g id="header-bee-head"><path class="st0" d="M90.8 51.7c-.5 0-.9-.3-1-.8 0-.3-1-6.9 2.6-11.4 1.8-2.2 4.3-3.5 7.5-3.9.5-.1 1 .3 1.1.8.1.5-.3 1-.8 1-2.7.3-4.8 1.4-6.2 3.2-3.2 3.9-2.3 10-2.3 10.1.1.5-.3 1-.8 1h-.1z"/><ellipse class="st0" cx="101.6" cy="36" rx="2.4" ry="2.3"/><path class="st0" d="M85.9 52.4h-.1c-.5-.1-.9-.5-.8-1 0-.1.9-6.2-2.3-10.1-1.4-1.8-3.5-2.8-6.2-3.2-.5-.1-.9-.5-.8-1 .1-.5.6-.9 1.1-.8 3.2.4 5.7 1.7 7.5 3.9 3.6 4.5 2.7 11.1 2.6 11.4-.1.5-.6.8-1 .8z"/><ellipse class="st0" cx="75.1" cy="36.7" rx="2.4" ry="2.3"/><path class="st1" d="M109.3 63.1c-.2-6.1-3.5-11.4-8.4-14.7-7.8.9-11.2 12-11.2 12S79.8 50.1 74 51.7c-3 3.4-4.7 7.7-4.6 12.5.3 10.3 9.5 18.4 20.5 18.1 11.1-.2 19.7-8.9 19.4-19.2z"/><path class="st0" d="M89.7 60.4s3.4-11.1 11.2-12c-3.4-2.3-7.6-3.6-12.1-3.5-6 .2-11.3 2.8-14.8 6.8 5.8-1.6 15.7 8.7 15.7 8.7zm2.2 16.7c-1.6 0-3.1-.6-4.2-1.7-.4-.4-.3-1 .1-1.3.4-.3 1-.3 1.4.1.8.8 2.1 1.3 3.3 1.1.6-.1 1.6-.4 2.1-1.5.2-.5.8-.7 1.3-.5.5.2.7.7.5 1.2-.6 1.4-1.9 2.3-3.6 2.6h-.9z"/><path class="st4" d="M97.7 68.2c-3 .2-5.7-1.6-6.5-4.3-1-3.1 1-6.4 4.3-7.3.4-.1.8-.2 1.2-.2 3-.2 5.7 1.6 6.6 4.3 1 3.1-1 6.4-4.3 7.3-.5.1-.9.1-1.3.2z"/><path class="st0" d="M96.7 57.1c2.6-.2 5 1.3 5.7 3.7.8 2.7-.9 5.6-3.8 6.4-.4.1-.7.2-1.1.2-2.6.2-5-1.3-5.7-3.7-.8-2.8.9-5.6 3.8-6.4.4-.1.8-.1 1.1-.2zm-.1-1.4c-.5 0-.9.1-1.4.2-3.8 1-5.9 4.7-4.9 8.2.9 3 4 5 7.4 4.8.5 0 .9-.1 1.4-.2 3.8-1 5.9-4.7 4.9-8.2-1-3.1-4.1-5.1-7.4-4.8z"/><path class="st0" d="M98.1 61.4c-.4-1.2-1.8-2-3.1-1.6-1.3.4-2.1 1.6-1.7 2.9.4 1.2 1.8 2 3.1 1.6 1.3-.3 2.1-1.6 1.7-2.9z"/><path class="st4" d="M95.2 60.8c-.1-.4-.6-.6-1-.5-.4.1-.7.5-.6 1 .1.4.6.6 1 .5.5-.2.7-.6.6-1zM83 69.2c-.6 0-1.2 0-1.8-.1-3.4-.7-5.6-3.8-4.8-7 .6-2.5 2.9-4.4 5.7-4.7.6 0 1.2 0 1.8.1 1.6.3 3.1 1.2 4 2.6.9 1.3 1.2 2.9.9 4.4-.8 2.6-3.1 4.5-5.8 4.7z"/><path class="st0" d="M82 58.2c.5 0 1.1 0 1.6.1 3 .6 4.9 3.4 4.2 6.2-.5 2.3-2.6 3.9-5 4.1-.5 0-1.1 0-1.6-.1-3-.6-4.9-3.4-4.2-6.1.6-2.4 2.6-4 5-4.2zm-.1-1.5c-3.1.2-5.7 2.4-6.4 5.2-.8 3.6 1.6 7.1 5.4 7.9.7.2 1.4.2 2.1.2 3.1-.2 5.7-2.4 6.4-5.2.4-1.7 0-3.5-1-5s-2.6-2.5-4.5-2.9c-.6-.2-1.3-.2-2-.2z"/><path class="st0" d="M81.4 62.6c.3-1.3 1.6-2.1 3-1.8 1.3.3 2.2 1.5 1.9 2.8-.3 1.3-1.6 2.1-3 1.8-1.3-.3-2.1-1.5-1.9-2.8z"/><path class="st4" d="M84.3 61.8c.1-.4.5-.7 1-.6.4.1.7.5.6.9-.1.4-.5.7-1 .6-.4-.1-.7-.5-.6-.9z"/></g></svg>