<svg id="Layer_1" xmlns="http://www.w3.org/2000/svg" viewBox="0 0 132 85"><style>.st0{fill:#fff}.st0,.st1,.st2{fill-rule:evenodd;clip-rule:evenodd}.st1{fill:#72a4b6}.st2{fill:#c0ccca}</style><path id="header-bird-body" class="st0" d="M125 14.8c-.5.2-6.3-.3-6.4.2-1.2 5.2-2.6.8-3.4 9.2-.4 5 1 12.1.9 18.2-.8 37.2-52.9 40.8-68.1-7.7 5.1 16.4 33.5 12.4 42.5-5.7 6.4-12.7 15.9-27.4 26.6-18.3 1.9 1.6 5.6 1.8 7.9 4.1z"/><path id="header-bird-wing" class="st1" d="M98.3 48.4s9.4-7.5 1.7-16.6c0 0-3.8-5.7-20.4-4C62.9 29.5 56 22.7 56 22.7s23.3 38.5 42.3 25.7z"/><path id="header-bird-tail" class="st0" d="M65.1 49.8l-54.8 6.6s23.8 6.1-1.8 22.7c-4.1 2.7 54.2-23.3 57.1-25.3"/><ellipse id="header-bird-eye" transform="rotate(153.508 111.658 11.981)" class="st2" cx="111.7" cy="12" rx="1" ry=".9"/></svg>