<svg id="jumping_squirrel" xmlns="http://www.w3.org/2000/svg" viewBox="0 0 118 105"><style>.st0{fill:#598ea9}.st0,.st1,.st2,.st3{fill-rule:evenodd;clip-rule:evenodd}.st1{fill:#395d77}.st2{fill:#94b5cd}.st3{fill:#395b70}.st4{fill:none;stroke:#395b70;stroke-width:.2564;stroke-miterlimit:22.9256}.st10{fill-rule:evenodd;clip-rule:evenodd}.st5{fill:#fff}.st5,.st6,.st7,.st8,.st9{fill-rule:evenodd;clip-rule:evenodd}.st6{fill:#327e9d}.st7{fill:#225c72}.st8{fill:#378dc8}.st9{fill:#5a94c6}.st10{fill:#9dc5d1}</style><path class="st0" d="M65.1 25.1c-1 .5-2.2 2.7-2.3 4.2-.1 1.9 1 3.5 1.8 4.8 3.1 4.8 8.3 5.8 9.4 7.2.6.8.4 5.1 3.4 6.5 1 .5 1.8.4 2.7-.2.7-.5.9-1.4 1.4-1.8 1.3-1.1 3.7-.8 5.2-1.5-1.2.2-2.4-.3-2.6-1.1l-.7.2.2-.4c-1.9.2-3.4.5-4.5-.8l.4-.1c.2.2 0 0 .3.2 1.4.6 3.8.6 5.1.2.2.4-.5.6.7 1.2 1 .5 1.1 0 1.1 0 .3-.2-.1.1.2-.2l.2-.3c.3.6.2.4.1.5 0 0 .1 0 .1-.1l.3-.2c.1-.1.2-.1.3-.1l.1-.3v-.1l.1.1c1.1.8.7 0 1.1.7.3-.3.8-.4 1.5-1 0 0 .2-.1.2-.2 1.3-.9 2.7-3.1 3.1-4.7.2-.6.1-.8.4-1.1.3-.3.1 0 .3-.6.1-.2.1-.5.1-.7.1-.5-.2 0 .3-.5.8-1 1.3-1.6 1.6-3 .2-.9.3-2.5-.2-3.4-.3-.7-.4-.2-.1-.8l.2-.3c.6 1.2 1 3.1.5 4.5.1-.3 3.2-1.3 3.7-1.5 1.3-.6 3.2-1.9 3.5-1.9l.4-.1c0 .9.1 1.9.6 2.4l1.5.9h.2l.1.1c-1.2.1-4.2 3.4-4.8 3.9L98 40.4c-1.3 1-2 2.3-2.6 2.9l-3.3 4c-.3.4-.5.6-.8 1-3 4-1.2 3.6-6 9.4l-.2.2c-2.3 2.8-3 5.9-3.4 6.4v-.2c-.8 4.8.5 5-.3 6.6-.2.4-.8 1.2-1.2 1.5-.6-.2-.7-.4-.9-.3-1.9-.4-5.2-3-13.6-3-.4 0-1.2 0-1.6.2l-.3.3s0 .1-.1.1c-.1-.7 0-.3-.2-.4-1.7.7-5 .2-7-.6-1.5-.7-1.2-.9-1.9-.3-2.2 1.2-4.5 1.6-7.1 1.9-1.3.2-2.5.5-3.7.9-.8.2-2.9 1.1-3.5 1.1h-.5c.4-2.1-.4-2.7-1.2-4l2.2-2.6c.2-.3.5-.7.7-1 1.8-3.1 2.5-6.6 3.5-10 1.6-5.6 3.6-10.8 3.3-17-.1-3.2-.8-6.5-2.6-9.2-.4-.5-.5-.5-.7-1.1v-.5c.6-.1.9-.3 1.3-.5.3.9 4.5 4.5 3.7 14.2-.3 3.7-1.1 5.5-1.4 7.6-.1.7-1.8 6.6-2.1 6.9l-.1-3.2c-.2.2 0 2.6-.1 3.3-.1.6-.2.9-.4 1.4-.3.8-.1.9-.4 1.5-.5.9-.7 1.6-1 2.7-.2 1-.7 2.2-.3 3.2 1.9 1 6.4-1.8 7.9-2.7 3.1-1.9 2.8-3 5.6-1.8.4.2.6.2 1 .3.8.2.6 0 .9.5.6-.2.2-.3 1-.1 3.2.8 7.3.5 10.4-.2.9-.2 1.6-.5 2.5-.7.9-.3 1.9-.3 2.7-.6 1.5-.7 1.9-1.8 2.3-2.5.2-.4.6-.5 1-.8 0-.3-.1-.5-.2-.8-.1-.5-.2-.3 0-.8.4.3.4-.2.5 1.4l1.7-1.8c1.3-1.6.7-2 1.6-2.6l.2.9c0-.3.3-.4.6-1 .9-2 .5-3.1.7-4.5-.7.3-1.1 1.2-1.5 1.7-.5.6-.9 1-1.4 1.7-.6.7-1.2 1.4-2 1.8l-1.9.5c-1.4-2.3-3.2-1.4-4.1-2.3-.4-.4-.7-.8-1.1-1.1-3.8-3.9-8-4.6-10.7-11-.3-.8-1.3-2.4-1.4-2.8-1.1 2.7-.6 4.2-.2 6.6.1-.5.5-.9.9-1.1 0 1.3-.4 1.6.1 3.5.3 1 .8 2.1 1.1 3-2.1-1.2-4.1-4.6-4.7-7.2-.5-2.4-.2-5.3.8-7.6.3-.8.6-1.2.6-2.3-.3-.2-1-.2-1.3-.3-.7-.3-.2.2-.5-.4l1.9.3c.5-2.1 2.4-4.4 4.3-5.1 1.4.3 1.3 0 1.6 1.2"/><path class="st1" d="M63.7 69.4c-.6 2.2-.8 4-1.6 6.2-1.3 3.8-3.4 7.7-5.9 10.6-.2.3-.3.3-.4.5-1.7 2.1-4.8 4.7-7.2 6.2-3.3 2.1-7 3.5-10.9 4.6-2.6.7-5.4.9-6.5 1.1H27c-.6-.2-2.9-.4-3.9-.6-3.5-.7-6.7-1.9-9.7-3.6-1.7-1-3.8-2.5-4.9-4-.3-.4-.7-.8-1-1.3-1.4-2-1.3-3.3-1.9-4.6v-3c.6-1.4.2-1.7 1.3-3.1.5-.6 1.5-1.5 2.6-1.7v.5l-.1.3s0 .2-.1.2c-.5 3.2 6.1 6 8.5 6.3 2.2.3 2.9-.3 4.1-1.2.2.3.3.7.4 1 .4.9 1 1.6 2 2 1.1.4 3.2.5 3.4-1.6.4.1 1 .5 1.5.8 5.8 2.7 13.5-.1 18.2-4.4.8-.8 1.5-1.4 2.1-2.4.2-.2.3-.5.5-.7.2-.3.3-.4.4-.7.6-1.3-.4.1.1-1.1v-.1l.1-.2c.4-.4.4-.3.7-.8.7-1 1-1.3 1.7-2.5.5-.8 1.6-3 1.7-3.9.7-.7.4-.4 1.9.3 2 .9 5.3 1.3 7 .6.1 0 0-.3.1.3"/><path class="st2" d="M50.1 25.6c.6 0 .9.3 1.8.8l3.8 1.6c.7.2 1.7.4 2 .6.3.6-.2.1.5.4.3.1 1 .1 1.3.3 0 1.1-.2 1.5-.6 2.3-1 2.3-1.3 5.2-.8 7.6.5 2.7 2.6 6.1 4.7 7.2-.4-.8-.9-2-1.1-3-.5-1.9-.1-2.2-.1-3.5-.4.2-.8.6-.9 1.1-.4-2.4-.9-3.9.2-6.6.1.4 1 2 1.4 2.8 2.7 6.4 6.9 7.1 10.7 11l1.1 1.1c.9.9 2.6 0 4.1 2.3l1.9-.5c.9-.3 1.5-1 2-1.8.6-.7.9-1 1.4-1.7.4-.5.8-1.4 1.5-1.7-.2 1.4.2 2.5-.7 4.5-.3.6-.6.7-.6 1l-.2-.9c-.9.5-.4 1-1.6 2.6l-1.7 1.8c-.2-1.6-.1-1.1-.5-1.4-.1.6-.1.3 0 .8.1.3.1.5.2.8-.4.3-.7.4-1 .8-.4.7-.8 1.8-2.3 2.5-.8.4-1.7.3-2.7.6-.9.3-1.6.5-2.5.7-3.1.7-7.2 1-10.4.2-.8-.2-.4-.1-1 .1-.4-.5-.2-.4-.9-.5-.4-.1-.6-.2-1-.3-2.7-1.2-2.5-.1-5.6 1.8-1.5.9-6 3.6-7.9 2.7-.3-1 .1-2.2.3-3.2.3-1.1.5-1.8 1-2.7.3-.6.1-.6.4-1.5.2-.5.3-.8.4-1.4.1-.7-.1-3.1.1-3.3l.1 3.2c.3-.3 2-6.2 2.1-6.9.3-2.1 1-3.9 1.4-7.6.9-9.7-3.4-13.3-3.7-14.2.9-.5 1-1.5 1.5-2 0 .4 1.3 1.4 1.9 1.5"/><path class="st2" d="M87.2 15.3l1.9.9c.3.5.7.6 1.5 1.2.5.4.8.7 1.3 1.1l.8.9c.4.3.4.4.8.9.3.4.9 1.7 1.2 2l-2 2.9c-3.3 4-2.6 6.8-2.5 12 1.5.7 3.1 0 4.4-.3-.3.3-.2.5-.4 1.1-.4 1.5-1.8 3.8-3.1 4.7 0 0-.2.1-.2.2-.7.6-1.1.7-1.5 1-.4-.7 0 .1-1.1-.7l-.1-.1v.1l-.1.5s-.2.1-.3.1l-.3.2s-.1 0-.1.1c.1-.1.2.1-.1-.5l-.2.3c-.3.3.1 0-.2.2 0 0-.2.5-1.1 0-1.2-.6-.4-.8-.7-1.2-1.3.4-3.7.5-5.1-.2-.3-.1-.1 0-.3-.2.4-.1.8-.1 1.2-.2l.8-.1c.3-.1.1 0 .3-.1l-3 .3c-.4-.5-.7-1.4-1.1-1.8-.7 1.3-.8 1.8-1 3.5-.1 1.2.2 2.4.9 3.1.7.8 2 1.4 2.6.1.4-.6.7-1.5 1.2-2.1.4-.5 1.4-1.3 2-1.4l.7-.2c.3.8 1.4 1.2 2.6 1.1-1.4.8-3.8.4-5.2 1.5-.5.4-.7 1.3-1.4 1.8-.9.6-1.7.7-2.7.2-3-1.4-2.8-5.7-3.4-6.5-1.1-1.4-6.3-2.4-9.4-7.2-.8-1.3-1.9-3-1.8-4.8.1-1.5 1.3-3.7 2.3-4.2.1.1 2.4 4.7 3.9 6.6.8 1 .8 1.2 1.8 2.1 3.3 3.2 6.5 1.8 10 3.3-.4-2.5.1-4.9 0-7.5-.2-5.2-2.4-6.8-5.4-10.1-1.1-1.2-2.3-3.3-2.1-5.5.6-.3 2.3-.5 3-.5.2.2.2.2.7.4 1.8.5 3.1 1.5 4.2 3 1.1 1.4 1.5 2.2 2.3 3.9 2 4.6 2 6.9 2.8 11.6.9-1.2 2-6.2 2.1-8.1.2-1.7.1-3.3-.2-5-.4-1.9-1-3.2-1.2-4.4m.5 21.2c-4.3-.6-5.4 2.3-2.5 5.1l.1.1.1.1c.6.6.3.4.8.5.8.1 4-.8 4.6-2.6.1-.4.1-1.1 0-1.5-.1-.4-.1-.3-.3-.6l-.4-.4c-.6-.5-1.4-.6-2.4-.7z"/><path class="st3" d="M9.5 76.7c1.6-.8 4.2-.4 5.9.1 1.1.3 1.8.1 2.9.4.9.3 1.6.6 2.3 1 1.4.8.9 1 2.3.9 2.5-.2 3.5 1 5.1 1.6.8.3 1.7.5 2.7.7 6.1 1.2 11.2.1 16.2-3.1 1.5-1 2.4-2 3.5-3.1l-.1.2v.1c-.5 1.2.5-.2-.1 1.1-.1.3-.3.4-.4.7-.2.3-.3.5-.5.7-.7.9-1.3 1.6-2.1 2.4-4.7 4.3-12.4 7.1-18.2 4.4-.5-.2-1.1-.6-1.5-.8-.2 2-2.3 2-3.4 1.6-1-.4-1.5-1.1-2-2-.1-.3-.2-.7-.4-1-1.2.9-1.9 1.5-4.1 1.2-2.4-.3-9-3-8.5-6.3 0-.1 0-.2.1-.2l.1-.3v-.3h.2z"/><path class="st4" d="M9.5 76.7c1.6-.8 4.2-.4 5.9.1 1.1.3 1.8.1 2.9.4.9.3 1.6.6 2.3 1 1.4.8.9 1 2.3.9 2.5-.2 3.5 1 5.1 1.6.8.3 1.7.5 2.7.7 6.1 1.2 11.2.1 16.2-3.1 1.5-1 2.4-2 3.5-3.1l-.1.2v.1c-.5 1.2.5-.2-.1 1.1-.1.3-.3.4-.4.7-.2.3-.3.5-.5.7-.7.9-1.3 1.6-2.1 2.4-4.7 4.3-12.4 7.1-18.2 4.4-.5-.2-1.1-.6-1.5-.8-.2 2-2.3 2-3.4 1.6-1-.4-1.5-1.1-2-2-.1-.3-.2-.7-.4-1-1.2.9-1.9 1.5-4.1 1.2-2.4-.3-9-3-8.5-6.3 0-.1 0-.2.1-.2l.1-.3v-.3h.2z"/><path class="st1" d="M73.3 14c-.2 2.3 1 4.3 2.1 5.5 2.9 3.2 5.1 4.9 5.4 10.1.1 2.6-.4 5 0 7.5-3.5-1.5-6.7 0-10-3.3-1-1-1-1.1-1.8-2.1-1.5-1.9-3.8-6.5-3.9-6.6-.3-1.2-.2-.8-1.2-1.3-5.7-3.1-7-11.8-2.7-14.6.9-.6 1.4-.5 2.3-.9h1.9c.7.3 1.4.5 2.2.9 1.5.9 4.1 3.8 4.6 5l1.1-.2zm-5.5 9.4c.7-.4 1.4-1.5 1.8-2.7.9-2.4 0-5-1.2-7-.3-.4-.7-1-1-1.3-.4-.5-.5-.8-1.1-1.1-.1-.2 0-.1-.2-.3-.1-.1-.2-.1-.3-.2-1.6-1.2-3-1.4-4.5.2-2.8 2.8-1 8.8 1.6 10.9.6.5 2.6 2.6 4.4 1.9l.5-.4zm4.7 10.9l.9.7c1.2.6 3.8 1 4.5.7 1-.5 4.1-8.2-.7-12.3-.4-.3-1.1-.7-1.8-.8-5.2-.9-7.4 8.8-2.9 11.7z"/><path class="st5" d="M72.5 34.3c-4.5-2.9-2.3-12.6 3-11.8.7.1 1.4.5 1.8.8 4.8 4.1 1.7 11.8.7 12.3-.7.3-3.3-.1-4.5-.7l-1-.6z"/><path class="st1" d="M87.2 15.3c.2 1.3.8 2.5 1 4 .2 1.7.3 3.3.2 5-.2 1.8-1.2 6.9-2.1 8.1-.8-4.7-.8-7-2.8-11.6-.7-1.7-1.2-2.5-2.3-3.9-1.1-1.5-2.4-2.5-4.2-3-.5-.2-.5-.2-.7-.4.9.2 4.6-.5 8.6.9.8.3 1.6.8 2.3.9"/><path class="st6" d="M66.3 11.3c0 1.3-.2 1.9.4 3 .6 1.1 1.5 1.6 1.7 2-1.2.2-1.9-.6-2.9-.9.1.9.4.8.9 1.2l.4.3-2.2-.2c.2 1.5.8.9 1.8 3.3.4.9 1 2.9 1.3 3.3l-.5.4c-1.8.7-3.9-1.4-4.4-1.9-2.5-2-4.3-8-1.6-10.9 1.6-1.6 3-1.4 4.5-.2.1.1.2.1.3.2.3.3.2.1.3.4M114 26.9v.4c-1.6 1.1-1.5.9-2.3 1.4 0 0-.1 0-.1.1 1.5.2 3.1 1.1.9 1.9-3.1 1.1-2.8 1.1-5.5.9l-.1-.1h-.2l-1.5-.9c-.5-.5-.6-1.5-.6-2.4l-.4.1c1-.8 0-1.5 2-4.4.4-.5.4-1 1.2-.8.5.5.4 1.4.5 2.2.7-.4 3-2 3.9-1.6.3.7-.2 1.3-.5 1.7l-1 1.3c1.3 0 2.7-.4 3.7.2m-63.9-1.3c-.5-.1-1.9-1.1-2.3-1.4-.5.6-.6 1.5-1.5 2-.4.2-.7.5-1.3.5l.1.4-.2-.3c-1.5 0-2.7-.2-4.1-.8-1.1-.4-4-2.3-1.7-2.6.4-.1.9-.1 1.3-.1-.6-.6-1.6-.9-1.9-1.8.9-.8 2.3-.3 3.5 0-.4-.7-1.1-1.6-.9-2.6.6-.1.8-.1 1.4.2 1 .5 2.3 1.6 2.8 2.5.5-1 .2-2.3 1.4-2.7 1.4.5 1.1 3.6 1 5 .8.6 1.6 1.2 2.4 1.7"/><path class="st1" d="M94.9 35.5c0 .2-.1.5-.1.7-.1.6 0 .3-.3.6-1.3.4-2.9 1.1-4.4.3 0-5.2-.8-8 2.5-12l2-2.9.4-.4c.2-.2.2-.3.4-.4 1.9-2.1 2.7-5.9 1.6-8-.3-.6-1-1.2-2-.9-1.2.4-2.3 2.3-2.6 3.5-.2.7-.2 2.1-.5 2.5-.4-.4-.8-.7-1.3-1.1-.8-.6-1.2-.6-1.5-1.2.3-.2 4.2-6.2 7.3-4.6 2.5 1.2 2.6 6.4.7 9.5l-1.8 2.4c-.1.2.4 3.3.5 3.5-1.8-.6-2.8-.5-3.7.8-1.3 2-2.2 6.9-1 8.5.5.6 1.3.5 2.1.3.8-.4 1.1-.7 1.7-1.1"/><path class="st6" d="M81.7 64.2c0 1.2-.5 3 .2 5.1.3 0 1.5-.7 2-.9 2.7-1.1 3.6-.5 1.1 2 1.1.2 2.9.7 2.8 1.9-.6.5-1.6.3-2.4.4 0 0 2.4 2.1 1.8 2.8-.7.6-1.8-.4-2.4-.7.2 1 .3 2.2-.3 3-1 0-2.3-2.1-2.8-2.9-.3-.5-.3-.4-.7-.8-1.4-1.3-.5-1.6-1.7-2.3.2-.1.3.1.9.3.4-.3 1-1.1 1.2-1.5.9-1.7-.4-1.8.3-6.6v.2zm-43.1 3.9c.8 1.4 1.6 1.9 1.2 4h.5c-1.4.7-.2.7-1.8 1.5-1 .5-.5.8-1.8 1.8-.4.3-1 .6-1.6.4-.3-1.2.8-2.2 1.2-3-.5.2-2.5 1-3.1.9-.6-.1-.3 0-.5-.3-.5-.9 2-2.1 2.7-2.6-2.3-.2-5.2-2.7-1.7-2.4.6 0 1.2.1 1.8.2-.3-.7-.8-1.4-.7-2.2.4-.5 1.5-.1 2.2.3.9.6 1 .7 1.6 1.4m56-45.8c-.3-.3-.9-1.6-1.2-2-.3-.4-.4-.6-.8-.9l-.8-.9c.3-.4.3-1.8.5-2.5.4-1.2 1.5-3.1 2.6-3.5 1-.3 1.7.3 2 .9 1.1 2.1.3 5.9-1.6 8-.1.2-.2.2-.4.4l-.3.5z"/><path class="st7" d="M87.7 36.5c1 .2 1.7.2 2.4.7l.4.4c.2.2.2.1.3.6.1.4.1 1 0 1.5-.5 1.8-3.8 2.7-4.6 2.6-.6 0-.3.1-.8-.5l-.1-.1-.1-.1c-2.8-2.8-1.7-5.8 2.5-5.1"/><path class="st2" d="M67.8 23.4c-.3-.4-.9-2.5-1.3-3.3-1-2.3-1.6-1.8-1.8-3.3l2.2.2-.4-.3c-.6-.4-.8-.4-.9-1.2.9.3 1.7 1 2.9.9-.2-.5-1.1-.9-1.7-2-.6-1.1-.4-1.7-.4-3 .6.3.6.6 1.1 1.1.3.3.7.9 1 1.3 1.2 2 2.1 4.7 1.2 7-.5 1-1.3 2.2-1.9 2.6"/><path class="st8" d="M75.8 30l-.1-.8c-.2-.2-.4-.4-.9-.3-.4.1-.5.3-.7.5-.4-.1-.8.5-1 .7.8 0 .6.1.6.8-.6.1-.7-.2-.9-.1-1.1 3.5 2.9 4.2 3.7 1 .3-1.2 0-1.7-.5-2.5l-.2.7z"/><path class="st1" d="M79.4 42.2l-.4.1c1.1 1.3 2.6 1 4.5.8 0 0-.2.3-.2.4-.7.1-1.7 1-2 1.4-.5.6-.7 1.5-1.2 2.1-.4-.6 0-1.3-1.1-2.2-.6-.5-1.4-.8-2.4-1 .2-1.7.3-2.3 1-3.5.3.4.7 1.2 1.1 1.8l3-.3c-.2.1 0 0-.3.1l-.8.1c-.4 0-.8.1-1.2.2M75.8 30l.2-.6c.5.8.8 1.2.5 2.5-.8 3.2-4.9 2.6-3.7-1 .3-.1.3.2.9.1.1-.7.2-.8-.6-.8.2-.3.6-.9 1-.7.1 1.3 1.2 1.4 1.7.5"/><path class="st9" d="M94.4 33.2c-.4 2.9-2.8 3.7-3.6 1.6-.2-.7-.3-1.6-.1-2.3.7-3.8 4.3-3.5 3.7.7m-2.6-.3c-.5.1-.6-.2-.7.4-.2 1.1.2 2.5 1.6 2 1.1-.4 1.5-1.9.7-3.4-.2.3-.1.5-.3.8h-.9l-.3-.7-.4.3c.2.4.2-.2.3.6z"/><path class="st10" d="M80.2 47c-.6 1.3-1.9.7-2.6-.1-.6-.7-.9-1.9-.9-3.1 1 .2 1.8.5 2.4 1 1.1 1 .7 1.6 1.1 2.2"/><path class="st1" d="M91.8 32.9c-.1-.8-.1-.2-.3-.7l.4-.3.3.7h.9c.2-.3.2-.5.3-.8.7 1.5.3 3-.7 3.4-1.3.4-1.8-.9-1.6-2 .1-.6.2-.3.7-.3m-16-2.9c-.5.9-1.7.8-1.7-.6.2-.3.2-.5.7-.5.5-.1.7.2.9.3l.1.8z"/></svg>