<svg id="nav-menu" xmlns="http://www.w3.org/2000/svg" viewBox="0 133 960 296"><style>.st0{fill:none;stroke:#3f7188;stroke-width:3;stroke-miterlimit:10;stroke-opacity:.5;stroke-dasharray:5,5}.st1,.st2,.st3,.st4{opacity:.7;fill:#d0e4e5;enable-background:new}.st2,.st3,.st4{opacity:.5;fill:#4d93ac}.st3,.st4{fill:#3e7187}.st4{opacity:.2}.st5{opacity:.1}.st6{fill:#d0e4e5}.st7{fill:#fff}.st8{font-family:&amp;apos;Helvetica-Condensed-Light&amp;apos;}.st9{font-size:21px}.st10,.st11{fill:#3e7187}.st11{opacity:.4;enable-background:new}.st12{fill:#37722b}.st13{opacity:.5}.st14{opacity:.4}.st15{fill:#1f3d47;enable-background:new}.st15,.st16{opacity:.5}.st16,.st17,.st18{enable-background:new}.st16{fill:#313a3a}.st17,.st18{opacity:.3;fill:#3e7187}.st18{opacity:.1}</style><path id="menu-globe-path" class="st0" d="M3 138.2s515 472.5 955 45"/><path id="menu-sun" class="st1" d="M551.6 253.3c0 15.8-12.9 28.5-28.8 28.5S494 269 494 253.3c0-15.8 12.9-28.5 28.8-28.5 15.9-.1 28.8 12.7 28.8 28.5z"/><path id="menu-sun-path" class="st0" d="M162.8 139.2s343 256.6 720 0"/><g id="menu-testimony"><g id="menu-testimony-globe"><path class="st2" d="M816.8 234.5c32.2 7.6 52.2 39.9 44.6 72.2-7.6 32.2-39.9 52.2-72.2 44.6-32.2-7.6-52.2-39.9-44.6-72.2 7.6-32.2 39.9-52.2 72.2-44.6z"/><path class="st3" d="M811.1 233.4c-16.5 21.7-34.5 33.5-47.3 39.6-7.8 3.7-14.5 5.8-19.3 7-.3 1.4-.6 2.9-.8 4.3 5.1-1.1 12.7-3.3 21.7-7.6 13.6-6.5 32.8-19 50.2-42.5-1.5-.3-3-.6-4.5-.8zm-40.8 62c18-7.9 43.3-23.3 66.2-52.4-1.5-1-3-1.9-4.6-2.8-22 27.8-46.2 42.5-63.5 50.2-9.9 4.4-18.7 7-25.1 8.4.2 1.8.4 3.6.8 5.4 6.6-1.5 15.7-4.1 26.2-8.8z"/><path class="st3" d="M844.5 249.6c-22.5 30.6-48.1 46.4-65.9 54.3-14.4 6.4-26.2 8.9-31.9 9.7 1.5 4 3.3 7.8 5.6 11.3 7-1.3 17.8-4.1 30.7-9.7 18.9-8.3 45.7-24.7 69.6-56.1-2.4-3.5-5.1-6.6-8.1-9.5zm17.6 33c-.4-2.6-1.1-5.1-1.8-7.6-23 31.1-49 47.2-67.3 55.2-11.6 5.1-21.5 7.7-28 9 2.1 1.7 4.3 3.3 6.6 4.7 6.3-1.6 14.4-4.1 23.5-8.1 18.3-7.9 43.9-23.5 67-53.2zm-49.9 60.3c-10.7 4.7-19.6 6.8-25 7.8.7.2 1.4.4 2.1.5 2.6.6 5.3 1.1 7.9 1.3 4.7-1.3 10.3-3.2 16.5-5.9 12.5-5.5 29.2-15.2 45.4-32.3 1-2.5 1.8-5.1 2.4-7.7l.3-1.2c-17.5 20.4-36.1 31.6-49.6 37.5z"/><path class="st4" d="M816.8 234.5c-15.2-3.6-30.4-1-43.1 6.1 9.6 2.6 75.9 23.7 50.8 108.3 17.9-6.9 32.2-22.2 36.9-42.2 7.6-32.3-12.4-64.6-44.6-72.2z"/><g class="st5"><path class="st6" d="M814.6 234c-.3-.1-.7-.1-1-.2-.7-.1-1.4-.2-2-.3-.1 0-.3-.1-.5-.1-5 6.6-10.1 12.2-15.2 17 1.1.7 2.3 1.5 3.4 2.3 5.4-5.2 10.9-11.4 16.2-18.5-.3 0-.6-.1-.9-.2zm-.2 32.6c7.4-6.6 14.8-14.4 22-23.6l-.1-.1c-.4-.3-.9-.6-1.4-.9-.4-.2-.7-.4-1-.7-.4-.3-.9-.5-1.3-.8-.2-.1-.5-.3-.8-.4-6.8 8.7-13.9 16-20.9 22.4 1.2 1.4 2.4 2.7 3.5 4.1zm38.1-7.6c-1.1-1.7-2.4-3.3-3.7-4.8-.1-.1-.2-.3-.3-.4-.5-.6-1.1-1.3-1.7-1.9-.2-.2-.3-.4-.5-.5l-1.6-1.6-.2-.2c-7.7 10.4-15.7 19.1-23.7 26.4 2 3.5 3.8 7.4 5.2 11.6 8.9-7.8 17.9-17.2 26.5-28.6 0 .1 0 0 0 0zm-22.6 48.2c.2 2.4.2 5 .2 7.6 10.6-8.3 21.5-18.8 32-32.2-.1-.8-.3-1.5-.4-2.3-.1-.3-.1-.6-.2-.8-.1-.6-.3-1.2-.4-1.8-.1-.3-.1-.5-.2-.8-.2-.6-.4-1.3-.6-1.9-9.9 13.3-20.3 23.9-30.4 32.2zm-1.9 27.3c-.3 1.8-.7 3.6-1.2 5.4 10-5.8 21.1-14 32.1-25.5 0-.1.1-.2.1-.3.1-.2.1-.4.2-.6.4-1 .7-2.1 1.1-3.1 0-.1.1-.2.1-.4.3-1.1.7-2.3.9-3.5l.3-1.2c-11.2 13.3-23 22.7-33.6 29.2z"/></g></g><text id="menu-testimony-text" transform="translate(759.523 299.74)" class="st7 st8 st9">TESTIMONY</text></g><g id="menu-team"><g id="menu-team-globe"><path class="st3" d="M629.5 365.9c0 33.1-26.7 60-59.5 60-32.9 0-59.5-26.9-59.5-60s26.7-60 59.5-60 59.5 26.8 59.5 60z"/><path class="st10" d="M591.9 330.3c-.8-.8-1.3 1.5-.5 1.8.7.3 1.7-.5.5-1.8zm-42 85.1c-.4-2.3-3.3-1.9-4.8-1.2s-1.2 3.9-.8 5.8c3.1 1.5 6.5 2.8 9.9 3.7.1-.3 0-.7-.3-1.2-.8-1.2-3.6-4.8-4-7.1z"/><path class="st10" d="M618.2 355.4c2.7.1 6.6-3.6 6-5.1-.5-1.5-3.7-.8-4.7-3.1-.9-2.3-2.4-4.2-1.5-4.6s2.8 5.9 8.5 4.8c-.1-.3-.9-2.4-1.9-5-1.7-4.1-3.9-8-6.5-11.6.4.6 1.9 5.5-.1 5.7-2 .1-2.4-4.9-2.4-5.5 0-.7-1.9-5.6-2-5.7s-.2-.2-.2-.3l-1.3-1.3c-3.4-3.4-7.1-6.4-11.2-9-.2.7.2 1.9-.3 2.5-.7.8-2.7 2.8-5 2.7-2.3-.1-3.3-1.2-2-2s2.1-.3 2.7-2.8c.5-2.3 0-2.8-.1-2.9-2.5-1.3-5.2-2.3-7.9-3.2-1 2.5-1.2 4.9.9 5.1 2.1.1 3.3.7 2.7 2.3-.7 1.6-1.6 1.9-3.1 2.8s-3.1 2.3-3.3.9c-.3-1.4-1.9-3.5-2.4-5s-.7-3-1.7-1.6c-1.1 1.4-2.3 2.6-3.4 4-1 1.5 1.1 1.6 3.1 2.4s2.4 2.2 1.9 3.1.9 1.3 1.3 2.3c.3.7 1.1 2.2 0 2.8-1.1.7-4.5-1.4-5.6-.7s-.3 4.7-.7 5.5 2.7 1.1 3.4 1.8c.7.7 3.4-.8 4.1-1.9.7-1.1.5-2.3 1.9-3.5 1.3-1.2 2.5-.7 3.6-1.1s0-1.1 1.1-.4 5.4 3.4 5.1 4.2c-.3.8-2.1.3-2.3 1.4-.1 1.1.9 1.5 1.6 1.5.7 0 1.7-1.8 2.4-2.2.7-.4 2 1.3 3.6 2.2s2.1-2.7 2.9-3.3c.8-.5 6.7-.4 6.8.4s-5.5-.1-6.2 1.6c-.7 1.8 2.1 2.3 3.6 3.4s2.4 4.9 2.5 7.6c.4 2.6 3.4 10.7 6.1 10.8z"/><path class="st10" d="M580.8 335.5c-1-.3-2.6.4-3 2.8s-2.4 3-3.7 4.9-1.9 9.6-1.2 12.3c.7 2.7 4.4 6.9 7 7.3 2.5.4 6.6.4 9 0s4.8 2.2 4.8 4.6 2.7 5 2.5 7.1c-.1 2.2-1.9 6.6 0 10.4s4.5 7.3 4.7 8.5c.1 1.2 5.4-.5 7.9-3.6s2.7-2.8 3.5-6.1c.8-3.2 2.5-4.5 2.8-6.2.3-1.8.3-3.6 0-6.2s4.7-8.5 5-10.8-2.8-2.3-4-4c-1.2-1.8-5.3-9.8-5.8-12.4-.4-2.6-5.2-3.1-6.6-3.9-1.3-.8-3.2.7-5.2-.7-2-1.3-5.8-5.1-7.5-5.1-1.8-.1-8.5 1.6-10.2 1.1zm-53 25.8c.1.6.5 2.6-.5 4.5-1.1 2-1.5 3.6 0 6.8 1.5 3.2 3.6 4.3 5.2 7.3s1.3 7.7 1.6 14.7 2.7 12.5 6.7 14.2c4 1.6-1.5-2.4-1.1-5.1s.3-4.2 1.7-6.2c1.5-2 2.4-1.2 4.2-4.9 1.8-3.6 1.3-4.9 3.4-6.1 2.1-1.2 5.2.1 5.9-4 .7-4.2-2-3 .9-6.7 2.9-3.8-.1-4.4-2.7-5.9-2.5-1.5-5.1-1.6-6.3-3.1s-1.1-1.1-3.2-3.4-3.7-2-6.6-3.9c-2.8-1.9-5.2-3.4-6.8-2.2-1.3 1.2-2.6 3.3-2.4 4zm10-46c-1.4.9-2.8 1.9-4.1 2.9.5 2.2-1.7 3.2-2.3 4.2-.7.9.1 3.4-.5 3.5-.7.1-1.3-2.7-1.4-4-7.1 6.7-12.7 15.1-15.9 24.6 1 2.5 1.7 4.7 2.1 7.2.4 2.4 4.1 1.1 5.3 3s3.5 3.5 5 4.5c1.5.9 0-.9-.9-3.1s-2.1-4.6-1.9-6.1c.3-1.6-1.3-2.1-2.4-.9-1.1 1.2-1.7 1.5-2.3-1.3-.5-2.8 2.5-3.2 4.1-3.9 1.6-.7 2.4.5 3.5 1.5 1.1.9.9-.7 1.2-3.6.3-3 5-8.6 6.4-11.4 1.5-2.8 3.1-3.7 3.5-5.2s3.6-.8 6.3.1 2.5-.8 1.5-2.2c-1.1-1.4-2-1.8-.9-2.7s-.3-1.8-1.3-3.1c-1.1-1.3-1.1-3.2-1.5-3.8-.4-.6-2 1.9-3.3 2.1-1.5-.1-.5-2-.2-2.3zm11.1-5.6c.8.9 1.5 1.5 2.4 3.1s2.7 2.8 3.6 0c.9-2.8 2.2-5.5 2.2-5.6-2.8.7-5.5 1.5-8.2 2.5z"/><path class="st11" d="M572.6 305.9c1.7 1.3 28.3 22.1 26.3 57.4-2 36.4-35.5 52.9-54.6 56.7 7.8 3.7 16.5 5.8 25.6 5.8 32.9 0 59.5-26.9 59.5-60 .1-32.2-25.2-58.5-56.8-59.9z"/><path class="st10" d="M615 381.9c-1.1 2-3.3 4.6-2.8 5.9.5 1.4 1.2 1.5 2.8-1.1s3.2-6.2 3.6-8.4c.4-2.2 1.1-4.7 0-3.5s-3.6 3.5-3.6 5.3v1.8zm-18.3 37.6c-.6-.3-2.4.2-3.7-.7-2.2-1.5-4.8.4-7.9.6-3.1.2-7 .2-10.2 1.9-3.2 1.6-3.3 1.5-6.3 2.6-2 .7-2 1.4-1.7 2 1 .1 2 .1 3.1.1 9.6-.1 18.6-2.4 26.7-6.5zm18.3-42.1c.3-1.8.3-3.6 0-6.2s4.7-8.5 5-10.8-2.8-2.3-4-4c-1.2-1.8-5.3-9.8-5.8-12.4-.4-2.6-5.2-3.1-6.6-3.9-1.3-.8-3.2.7-5.2-.7-1-.7-2.3-1.9-3.7-2.9 2.9 7.7 4.8 16.7 4.2 26.9-.3 6.3-1.6 12-3.6 17.1 0 1.4.2 2.9.9 4.4 1.9 3.8 4.5 7.3 4.7 8.5.1 1.2 5.4-.5 7.9-3.6s2.7-2.8 3.5-6.1c.7-3.3 2.4-4.5 2.7-6.3zm-33.6-64c-.2.2-.3.4-.5.6 1.4 1.6 3 3.5 4.5 5.6-.5-1.3-1.8-3.2-2.3-4.6-.5-1.5-.6-3-1.7-1.6z"/><path class="st10" d="M618.2 355.4c2.7.1 6.6-3.6 6-5.1-.5-1.5-3.7-.8-4.7-3.1-.9-2.3-2.4-4.2-1.5-4.6s2.8 5.9 8.5 4.8c0-.1-.1-.3-.1-.4-.3-.7-.9-2.4-1.7-4.4-.1-.3-.2-.6-.4-.8-.3-.7-.6-1.3-.9-2-.2-.3-.3-.7-.5-1-.3-.6-.6-1.2-1-1.8-.2-.3-.3-.6-.5-.9-.4-.7-.8-1.3-1.2-2-.1-.2-.3-.5-.4-.7-.6-.9-1.2-1.8-1.8-2.6.4.6 1.9 5.5-.1 5.7-2 .1-2.4-4.9-2.4-5.5s-1.8-5.2-1.9-5.6c-.2-.3-.5-.5-.7-.8l-.3-.3c-.3-.4-.7-.7-1.1-1.1-.5-.5-1-1-1.6-1.5-.3-.3-.6-.5-.9-.8-.6-.5-1.2-1.1-1.9-1.6-.2-.2-.4-.4-.6-.5-.8-.6-1.6-1.3-2.5-1.9-.3-.2-.7-.5-1-.7-.6-.4-1.1-.8-1.7-1.1-.2-.1-.4-.2-.6-.4-.2.7.2 1.9-.3 2.4-.7.8-2.7 2.8-5 2.7-2.3-.1-3.3-1.2-2-2s2.1-.3 2.7-2.8c.5-2.1.1-2.7-.1-2.9-.4-.2-.9-.4-1.3-.6-.1 0-.2-.1-.3-.1-1.6-.7-3.3-1.4-4.9-2-.2-.1-.3-.1-.5-.2l-.9-.3c-1 2.5-1.2 4.9.9 5.1 2.1.1 3.3.7 2.7 2.3-.7 1.6-1.6 1.9-3.1 2.8-1 .7-2.1 1.5-2.7 1.5 1.6 2.3 3.3 4.9 4.8 7.7h.1c1.1-.4 0-1.1 1.1-.4s5.4 3.4 5.1 4.2c-.3.8-2.1.3-2.3 1.4-.1 1.1.9 1.5 1.6 1.5.7 0 1.7-1.8 2.4-2.2.7-.4 2 1.3 3.6 2.2s2.1-2.7 2.9-3.3c.8-.5 6.7-.4 6.8.4s-5.5-.1-6.2 1.6c-.7 1.8 2.1 2.3 3.6 3.4s2.4 4.9 2.5 7.6c.6 2.5 3.6 10.6 6.3 10.7z"/><path class="st12" d="M544.5 420.1c.6.3 1.3.6 1.9.9.2.1.4.2.6.2.7.3 1.4.6 2.1.8.1 0 .3.1.4.1.7.3 1.4.5 2.1.7.1 0 .1 0 .2.1.8.3 1.6.5 2.3.7h.2c.1-.3 0-.7-.3-1.2-.5-.8-1.8-2.5-2.8-4.3-2.4.7-4.7 1.3-6.8 1.7-.1.3 0 .3.1.3z"/></g><g id="menu-team-clouds" class="st13"><path class="st7" d="M534.6 393.2c.2-.4.3-.9.3-1.4 0-2.1-1.7-3.8-3.8-3.8-1 0-1.8.4-2.5.9-1.1-2.3-3.4-4-6.1-4-3.6 0-6.5 2.8-6.7 6.4-.5-.1-.9-.2-1.4-.2-2.7 0-4.8 2.2-4.8 4.9s2.2 4.9 4.8 4.9c1 0 1.8-.3 2.6-.8.5 1.4 1.8 2.3 3.4 2.3 1.6 0 3-1.1 3.4-2.6.9 1 2.2 1.7 3.6 1.7 1 0 1.9-.3 2.7-.8.4.1.9.2 1.3.2 2.5 0 4.5-2 4.5-4.6-.1-1.2-.5-2.3-1.3-3.1zm68.3 10.9c.2-.4.3-.9.3-1.4 0-2.1-1.7-3.8-3.8-3.8-1 0-1.8.4-2.5.9-1.1-2.3-3.4-4-6.1-4-3.6 0-6.5 2.8-6.7 6.4-.5-.1-.9-.2-1.4-.2-2.7 0-4.8 2.2-4.8 4.9s2.2 4.9 4.8 4.9c.9 0 1.8-.3 2.6-.8.5 1.4 1.8 2.3 3.4 2.3 1.6 0 3-1.1 3.4-2.6.9 1 2.2 1.7 3.6 1.7 1 0 1.9-.3 2.7-.8.4.1.9.2 1.3.2 2.5 0 4.5-2 4.5-4.6-.1-1.2-.5-2.3-1.3-3.1zm-26.8-68.3c.2-.5.3-1.1.3-1.7 0-2.6-2.1-4.7-4.6-4.7-1.2 0-2.2.4-3.1 1.2-1.3-2.9-4.2-4.9-7.5-4.9-4.4 0-8 3.5-8.3 7.9-.6-.2-1.2-.3-1.8-.3-3.3 0-5.9 2.7-5.9 6s2.7 6 5.9 6c1.2 0 2.3-.3 3.2-.9.6 1.7 2.2 2.9 4.1 2.9 2 0 3.7-1.3 4.2-3.2 1.1 1.2 2.7 2 4.5 2 1.2 0 2.4-.4 3.3-1 .5.2 1.1.2 1.6.2 3.1 0 5.5-2.5 5.5-5.6.1-1.5-.5-2.9-1.4-3.9z"/></g><text id="menu-team-text" transform="matrix(.9921 0 0 1 529.598 373.203)" class="st7 st8 st9">OUR TEAM</text></g><g id="menu-work"><g id="menu-work-globe"><path class="st3" d="M395.4 326.2c0 33-26.7 59.8-59.7 59.8S276 359.2 276 326.2s26.7-59.8 59.7-59.8c32.9 0 59.7 26.8 59.7 59.8z"/><g class="st14"><path class="st15" d="M395.9 327.3c0 32.7-26.5 59.1-59.1 59.1s-59.1-26.5-59.1-59.1c0-32.7 26.5-59.2 59.1-59.2 32.7 0 59.1 26.5 59.1 59.2z"/><path class="st10" d="M365.1 379.2c18.4-10 30.8-29.5 30.8-51.9 0-32.7-26.5-59.2-59.1-59.2s-59.1 26.5-59.1 59.2c0 9.6 2.3 18.6 6.3 26.6.1 0 25.4 20.8 81.1 25.3z"/><path class="st16" d="M385.9 360.2c6.3-9.4 10-20.8 10-33 0-32.7-26.5-59.2-59.1-59.2s-59.1 26.5-59.1 59.2c0 6.8 1.1 13.2 3.2 19.3 47.6 20 85.6 17.1 105 13.7z"/><path class="st16" d="M336.8 268.1c-32.6 0-59.1 26.5-59.1 59.2 0 1.5.1 2.9.2 4.4 3.2 3.4 9.6 8.3 24.3 11.8 14.9 3.5 17.7 3.2 38.7 9.5 21 6.4 29.4 1.5 38.7 1.9 4.2.2 7.5-.1 9.8-.5 4.2-8.1 6.5-17.3 6.5-27.1 0-32.7-26.4-59.2-59.1-59.2z"/><path class="st10" d="M336.8 268.1c-31.8 0-57.7 25.1-59 56.6 0 0 35 27.8 114.2 23.7 2.5-6.6 3.9-13.7 3.9-21.1 0-32.7-26.4-59.2-59.1-59.2z"/><path class="st10" d="M336.8 268.1c-29.2 0-53.4 21.2-58.2 49.1 6.5 3.2 49.5 22.4 117.3 10.3v-.2c0-32.7-26.4-59.2-59.1-59.2z"/><path class="st16" d="M285.9 297.2s39.3 27 109.9 25.7c-2.2-30.7-27.7-54.9-58.9-54.9-21.8.1-40.7 11.8-51 29.2z"/><path class="st10" d="M287.9 294s29.6 10.5 59.7 10.4c26.4-.1 39.4 3.8 45.9 6.2-7.2-24.6-29.8-42.5-56.7-42.5-20.3 0-38.2 10.3-48.9 25.9z"/><path class="st16" d="M350.7 300.1c20.3 0 31 3.1 40.7 4.3-8.9-21.3-30-36.3-54.5-36.3-18.3 0-34.7 8.4-45.5 21.5 14 5.4 39 10.5 59.3 10.5z"/><path class="st10" d="M387.7 297.2c-10.3-17.4-29.2-29.1-50.9-29.1-11.2 0-21.7 3.1-30.6 8.5 0 0 24.7 14 81.5 20.6z"/><path class="st16" d="M311.5 273.8c12.8 6.2 32.9 12.5 66.7 11.2-10.7-10.5-25.2-16.9-41.3-16.9-9.1 0-17.7 2-25.4 5.7z"/><path class="st16" d="M342.1 268.3c.2.5 40 77.6-26.4 114.1 6.6 2.5 13.7 3.9 21.2 3.9 32.6 0 59.1-26.5 59.1-59.1-.1-30.8-23.8-56.2-53.9-58.9z"/><path class="st10" d="M395.8 323.3c0-.7-.1-1.3-.1-2 0-.4-.1-.8-.1-1.2-.1-.6-.1-1.2-.2-1.7-.1-.4-.1-.8-.2-1.2-.1-.5-.2-1.1-.3-1.6-.1-.4-.2-.9-.3-1.3l-.3-1.5c-.1-.4-.2-.9-.3-1.3-.1-.5-.3-1-.4-1.4s-.3-.9-.4-1.3c-.2-.5-.3-.9-.5-1.4-.2-.4-.3-.9-.5-1.3s-.3-.9-.5-1.3-.4-.9-.6-1.3l-.6-1.2c-.2-.4-.4-.9-.6-1.3l-.6-1.2c-.2-.4-.5-.9-.7-1.3s-.4-.7-.6-1.1c-.3-.4-.5-.9-.8-1.3-.2-.3-.4-.7-.6-1-.3-.5-.6-.9-.9-1.3l-.6-.9c-.3-.5-.7-.9-1-1.4-.2-.2-.4-.5-.6-.7-.4-.5-.8-1-1.2-1.4-.1-.2-.3-.4-.5-.5-.4-.5-.9-1-1.4-1.6l-.2-.2c-4.2-4.5-9.1-8.4-14.4-11.4 0 0-.1 0-.1-.1-.7-.4-1.5-.8-2.2-1.2-.1 0-.1-.1-.2-.1-.7-.4-1.5-.7-2.2-1.1-.1 0-.2-.1-.3-.1-.7-.3-1.5-.6-2.3-.9-.1 0-.2-.1-.3-.1-.8-.3-1.5-.6-2.3-.8-.1 0-.2-.1-.3-.1-.8-.3-1.6-.5-2.3-.7-.1 0-.2-.1-.3-.1l-2.4-.6c-.1 0-.2 0-.3-.1-.8-.2-1.7-.4-2.5-.5h-.2c-.9-.2-1.7-.3-2.6-.4h-.1l-2.7-.3c.2.4 34.1 66.2-13 105 10.2 2.6 22.1 4.7 36 5.8l2.1-1.2c.2-.1.5-.3.7-.4.6-.3 1.1-.7 1.7-1.1.2-.1.3-.2.5-.3.7-.5 1.3-.9 2-1.4.2-.1.4-.3.6-.4l1.5-1.2c.2-.1.4-.3.5-.4.6-.5 1.2-1 1.8-1.6.2-.1.3-.3.5-.5.5-.4.9-.9 1.4-1.3l.5-.5c.6-.6 1.1-1.2 1.7-1.8.1-.1.2-.3.4-.4.5-.5.9-1 1.3-1.5.2-.2.3-.4.5-.6.5-.6 1-1.3 1.5-1.9.1-.1.1-.2.2-.3.4-.6.8-1.2 1.3-1.8.1-.2.3-.4.4-.6.4-.6.8-1.3 1.2-1.9 0-.1.1-.1.1-.2l1.2-2.1.3-.6c.3-.6.7-1.2 1-1.9.1-.1.1-.3.2-.4.4-.7.7-1.5 1-2.3l.3-.6c.3-.6.5-1.3.8-1.9.1-.2.1-.4.2-.5.3-.8.6-1.6.8-2.4.1-.2.1-.4.2-.6.2-.7.4-1.3.6-2 .1-.2.1-.4.2-.6.2-.8.4-1.7.6-2.5 0-.2.1-.3.1-.5.1-.7.3-1.4.4-2.2 0-.2.1-.4.1-.7.1-.9.2-1.7.3-2.6v-.3c.1-.8.1-1.6.2-2.4v-.7c0-.9.1-1.8.1-2.7 0-1 0-2-.1-3-.3-.5-.3-.9-.3-1.2z"/><path class="st16" d="M395.8 323.3c0-.7-.1-1.3-.1-2 0-.4-.1-.8-.1-1.2-.1-.6-.1-1.2-.2-1.7-.1-.4-.1-.8-.2-1.2-.1-.5-.2-1.1-.3-1.6-.1-.4-.2-.9-.3-1.3l-.3-1.5c-.1-.4-.2-.9-.3-1.3-.1-.5-.3-1-.4-1.4s-.3-.9-.4-1.3c-.2-.5-.3-.9-.5-1.4-.2-.4-.3-.9-.5-1.3s-.3-.9-.5-1.3-.4-.9-.6-1.3l-.6-1.2c-.2-.4-.4-.9-.6-1.3l-.6-1.2c-.2-.4-.5-.9-.7-1.3s-.4-.7-.6-1.1c-.3-.4-.5-.9-.8-1.3-.2-.3-.4-.7-.6-1-.3-.5-.6-.9-.9-1.3l-.6-.9c-.3-.5-.7-.9-1-1.4-.2-.2-.4-.5-.6-.7-.4-.5-.8-1-1.2-1.4-.1-.2-.3-.4-.5-.5-.4-.5-.9-1-1.4-1.6l-.2-.2c-4.2-4.5-9.1-8.4-14.4-11.4 0 0-.1 0-.1-.1-.7-.4-1.5-.8-2.2-1.2-.1 0-.1-.1-.2-.1-.7-.4-1.5-.7-2.2-1.1-.1 0-.2-.1-.3-.1-.7-.3-1.5-.6-2.3-.9-.1 0-.2-.1-.3-.1-.8-.3-1.5-.6-2.3-.8-.1 0-.2-.1-.3-.1-.8-.3-1.6-.5-2.3-.7-.1 0-.2-.1-.3-.1l-2.4-.6c-.1 0-.2 0-.3-.1-.8-.2-1.7-.4-2.5-.5h-.2c-.9-.2-1.7-.3-2.6-.4h-.1l-2.7-.3c.2.4 28 54.4-1.8 93.5 19.6 1.9 35.2.2 45.6-1.6.5-.7.9-1.4 1.3-2.1.1-.2.3-.4.4-.7.3-.5.6-1.1.9-1.6.1-.2.3-.5.4-.7.4-.7.7-1.4 1.1-2.1 0-.1.1-.1.1-.2.4-.8.7-1.5 1.1-2.3.1-.2.2-.5.3-.7.2-.6.5-1.2.7-1.8.1-.2.2-.5.3-.7.3-.8.5-1.5.8-2.3 0 0 0-.1.1-.2.3-.8.5-1.7.7-2.5.1-.2.1-.5.2-.7.2-.6.3-1.3.4-1.9.1-.3.1-.5.2-.8.2-.8.3-1.7.5-2.5v-.1l.3-2.7c0-.3 0-.5.1-.8.1-.7.1-1.3.2-2v-.8c0-.9.1-1.8.1-2.7 0-1 0-2-.1-3-.3-.5-.3-.9-.3-1.2z"/><path class="st10" d="M395.8 323.3c0-.7-.1-1.3-.1-2 0-.4-.1-.8-.1-1.2-.1-.6-.1-1.2-.2-1.7-.1-.4-.1-.8-.2-1.2-.1-.5-.2-1.1-.3-1.6-.1-.4-.2-.9-.3-1.3l-.3-1.5c-.1-.4-.2-.9-.3-1.3-.1-.5-.3-1-.4-1.4s-.3-.9-.4-1.3c-.2-.5-.3-.9-.5-1.4-.2-.4-.3-.9-.5-1.3s-.3-.9-.5-1.3-.4-.9-.6-1.3l-.6-1.2c-.2-.4-.4-.9-.6-1.3l-.6-1.2c-.2-.4-.5-.9-.7-1.3s-.4-.7-.6-1.1c-.3-.4-.5-.9-.8-1.3-.2-.3-.4-.7-.6-1-.3-.5-.6-.9-.9-1.3l-.6-.9c-.3-.5-.7-.9-1-1.4-.2-.2-.4-.5-.6-.7-.4-.5-.8-1-1.2-1.4-.1-.2-.3-.4-.5-.5-.4-.5-.9-1-1.4-1.6l-.2-.2c-4.2-4.5-9.1-8.4-14.4-11.4 0 0-.1 0-.1-.1-.7-.4-1.5-.8-2.2-1.2-.1 0-.1-.1-.2-.1-.7-.4-1.5-.7-2.2-1.1-.1 0-.2-.1-.3-.1-.7-.3-1.5-.6-2.3-.9-.1 0-.2-.1-.3-.1-.8-.3-1.5-.6-2.3-.8-.1 0-.2-.1-.3-.1-.8-.3-1.6-.5-2.3-.7-.1 0-.2-.1-.3-.1l-2.4-.6c-.1 0-.2 0-.3-.1-.8-.2-1.7-.4-2.5-.5h-.2c-.9-.2-1.7-.3-2.6-.4h-.1l-2.7-.3c.2.4 24.6 47.7 3.3 85.8 17.7 4.4 25.6.3 34.2.7 4.2.2 7.5-.1 9.8-.5.2-.4.4-.8.6-1.3 0-.1.1-.1.1-.2.4-.8.7-1.5 1-2.3.1-.2.1-.3.2-.5.3-.8.6-1.5.9-2.3.1-.1.1-.3.2-.4.3-.8.5-1.5.8-2.3 0-.1 0-.1.1-.2.3-.8.5-1.6.7-2.5 0-.2.1-.3.1-.5.2-.8.4-1.6.6-2.5 0-.2.1-.3.1-.5.2-.8.3-1.7.5-2.5v-.1c.1-.9.2-1.8.3-2.6v-.5c.1-.9.2-1.7.2-2.6v-.5c0-.9.1-1.8.1-2.7 0-1 0-2-.1-3-.1-.5-.1-.9-.1-1.2z"/><path class="st16" d="M395.8 323.3c0-.7-.1-1.3-.1-2 0-.4-.1-.8-.1-1.2-.1-.6-.1-1.2-.2-1.7-.1-.4-.1-.8-.2-1.2-.1-.5-.2-1.1-.3-1.6-.1-.4-.2-.9-.3-1.3l-.3-1.5c-.1-.4-.2-.9-.3-1.3-.1-.5-.3-1-.4-1.4s-.3-.9-.4-1.3c-.2-.5-.3-.9-.5-1.4-.2-.4-.3-.9-.5-1.3s-.3-.9-.5-1.3-.4-.9-.6-1.3l-.6-1.2c-.2-.4-.4-.9-.6-1.3l-.6-1.2c-.2-.4-.5-.9-.7-1.3s-.4-.7-.6-1.1c-.3-.4-.5-.9-.8-1.3-.2-.3-.4-.7-.6-1-.3-.5-.6-.9-.9-1.3l-.6-.9c-.3-.5-.7-.9-1-1.4-.2-.2-.4-.5-.6-.7-.4-.5-.8-1-1.2-1.4-.1-.2-.3-.4-.5-.5-.4-.5-.9-1-1.4-1.6l-.2-.2c-4.2-4.5-9.1-8.4-14.4-11.4 0 0-.1 0-.1-.1-.7-.4-1.5-.8-2.2-1.2-.1 0-.1-.1-.2-.1-.7-.4-1.5-.7-2.2-1.1-.1 0-.2-.1-.3-.1-.7-.3-1.5-.6-2.3-.9-.1 0-.2-.1-.3-.1-.8-.3-1.5-.6-2.3-.8-.1 0-.2-.1-.3-.1-.8-.3-1.6-.5-2.3-.7-.1 0-.2-.1-.3-.1l-2.4-.6c-.1 0-.2 0-.3-.1-.8-.2-1.7-.4-2.5-.5h-.2c-.9-.2-1.7-.3-2.6-.4h-.1l-2.7-.3c.2.3 21.8 42.3 6.6 79 12.6 1.3 27.1 1.9 43.4 1 0-.1.1-.2.1-.3.2-.5.3-.9.5-1.4.1-.4.3-.8.4-1.2.1-.5.3-.9.4-1.4.1-.4.2-.9.4-1.3.1-.5.2-.9.4-1.4.1-.5.2-.9.3-1.4.1-.4.2-.9.3-1.3l.3-1.5c.1-.4.1-.9.2-1.3.1-.5.1-1.1.2-1.6 0-.4.1-.8.1-1.2.1-.6.1-1.3.1-1.9 0-.3.1-.7.1-1 .1-1 .1-1.9.1-2.9s0-2-.1-3c-.2-.4-.2-.8-.2-1.1z"/><path class="st10" d="M395.9 327.5v-.2c0-1 0-2-.1-3 0-.3 0-.7-.1-1 0-.7-.1-1.3-.1-2 0-.4-.1-.8-.1-1.2-.1-.6-.1-1.2-.2-1.7-.1-.4-.1-.8-.2-1.2-.1-.5-.2-1.1-.3-1.6-.1-.4-.2-.9-.3-1.3l-.3-1.5c-.1-.4-.2-.9-.3-1.3-.1-.5-.3-1-.4-1.4s-.3-.9-.4-1.3c-.2-.5-.3-.9-.5-1.4-.2-.4-.3-.9-.5-1.3s-.3-.9-.5-1.3-.4-.9-.6-1.3l-.6-1.2c-.2-.4-.4-.9-.6-1.3l-.6-1.2c-.2-.4-.5-.9-.7-1.3s-.4-.7-.6-1.1c-.3-.4-.5-.9-.8-1.3-.2-.3-.4-.7-.6-1-.3-.5-.6-.9-.9-1.3l-.6-.9c-.3-.5-.7-.9-1-1.4-.2-.2-.4-.5-.6-.7-.4-.5-.8-1-1.2-1.4-.1-.2-.3-.4-.5-.5-.4-.5-.9-1-1.4-1.6l-.2-.2c-4.2-4.5-9.1-8.4-14.4-11.4 0 0-.1 0-.1-.1-.7-.4-1.5-.8-2.2-1.2-.1 0-.1-.1-.2-.1-.7-.4-1.5-.7-2.2-1.1-.1 0-.2-.1-.3-.1-.7-.3-1.5-.6-2.3-.9-.1 0-.2-.1-.3-.1-.8-.3-1.5-.6-2.3-.8-.1 0-.2-.1-.3-.1-.8-.3-1.6-.5-2.3-.7-.1 0-.2-.1-.3-.1l-2.4-.6c-.1 0-.2 0-.3-.1-.8-.2-1.7-.4-2.5-.5h-.2c-.9-.2-1.7-.3-2.6-.4h-.1l-2.7-.3c.1.3 16 31.2 11 63.1 12.8-.2 27.2-1.3 42.8-4.1z"/><path class="st16" d="M395.7 323v-.6c0-.5-.1-1.1-.2-1.6 0-.4-.1-.8-.1-1.2-.1-.5-.2-1.1-.2-1.6-.1-.4-.1-.8-.2-1.2l-.3-1.5-.3-1.2c-.1-.5-.2-1-.4-1.5l-.3-1.2c-.1-.5-.3-1-.4-1.5-.1-.4-.3-.8-.4-1.2-.2-.5-.3-.9-.5-1.4-.1-.4-.3-.8-.5-1.2-.2-.4-.4-.9-.5-1.3-.2-.4-.3-.8-.5-1.2-.2-.4-.4-.8-.6-1.3l-.6-1.2-.6-1.2c-.2-.4-.4-.8-.7-1.2-.2-.4-.4-.7-.6-1.1s-.5-.8-.7-1.3c-.2-.3-.4-.7-.7-1-.3-.4-.6-.9-.8-1.3-.2-.3-.4-.6-.7-.9-.3-.4-.6-.9-.9-1.3-.2-.3-.4-.6-.7-.8-.3-.4-.7-.9-1-1.3-.2-.3-.4-.5-.6-.7-.4-.4-.8-.9-1.2-1.3-.2-.2-.4-.4-.6-.7-.4-.4-.8-.9-1.3-1.3l-.6-.6c-.5-.5-.9-.9-1.4-1.3l-.5-.5c-.5-.4-1-.9-1.5-1.3-.1-.1-.3-.3-.5-.4-.6-.5-1.1-.9-1.7-1.3-.1-.1-.3-.2-.4-.3-.6-.4-1.2-.9-1.8-1.3-.1-.1-.2-.1-.3-.2-.7-.4-1.3-.9-2-1.3-.1 0-.2-.1-.2-.1l-2.1-1.2s-.1-.1-.2-.1c-.7-.4-1.5-.8-2.3-1.2h-.1c-6.4-3.2-13.6-5.3-21.1-6 .1.3 12.5 24.4 12 52 12.5 1.6 26.4 2.6 41.8 2.4z"/><path class="st10" d="M393.3 309.8c-.2-.5-.3-1.1-.5-1.6-.1-.4-.2-.7-.4-1.1-.2-.5-.3-.9-.5-1.4-.1-.4-.3-.7-.4-1.1-.2-.4-.4-.9-.6-1.3-.2-.3-.3-.7-.5-1-.2-.5-.4-.9-.6-1.3-.2-.3-.3-.6-.5-.9-.3-.5-.5-1-.8-1.4-.2-.3-.3-.5-.4-.8-.3-.6-.7-1.2-1.1-1.8-.1-.1-.2-.3-.2-.4-.5-.7-.9-1.5-1.4-2.2 0-.1-.1-.1-.1-.2-.4-.6-.9-1.3-1.4-1.9-.1-.2-.2-.3-.4-.5l-1.2-1.5c-.1-.2-.3-.3-.4-.5-.4-.5-.8-1-1.3-1.5-.1-.2-.3-.3-.4-.5-.5-.5-.9-1-1.4-1.5l-.3-.3c-.6-.6-1.2-1.1-1.8-1.7l-.1-.1c-2.6-2.4-5.5-4.5-8.5-6.4 0 0-.1 0-.1-.1-.7-.5-1.5-.9-2.2-1.3-7.1-3.9-15-6.5-23.5-7.2.1.2 8.1 15.7 11 36.1 22.8.4 34.4 4 40.5 6.2-.3-.3-.4-.5-.5-.8z"/><path class="st16" d="M390.9 303.3l-.3-.6c-.7-1.5-1.5-3-2.3-4.5-.1-.2-.2-.4-.3-.5-.3-.6-.6-1.1-1-1.7l-.3-.6-1.2-1.8c-.1-.1-.1-.2-.2-.3-1-1.4-2-2.8-3.1-4.1-.1-.1-.2-.2-.2-.3-.5-.6-1-1.1-1.5-1.7l-.3-.3c-1.8-1.9-3.7-3.7-5.7-5.4l-.1-.1c-.7-.5-1.3-1.1-2-1.6h-.1c-8.6-6.5-19-10.6-30.3-11.6.1.2 7 13.6 10.3 31.8 19.2.2 29.6 3.1 39 4.3-.1-.3-.3-.6-.4-1z"/><path class="st10" d="M386.9 295.9c0-.1-.1-.1-.1-.2-.4-.7-.9-1.4-1.3-2-.1-.1-.2-.3-.3-.4-.4-.6-.8-1.1-1.2-1.7-.1-.1-.1-.2-.2-.3-.5-.7-1-1.3-1.6-2l-.2-.2c-.5-.6-1-1.2-1.5-1.7-.1-.1-.1-.2-.2-.3-1.2-1.3-2.4-2.5-3.6-3.6-.1 0-.1-.1-.2-.1-9.3-8.4-21.2-13.9-34.3-15 .1.2 4.8 9.3 8.3 22.7 10.4 2.3 22.9 4.5 37.4 6.2-.4-.5-.7-1-1-1.4z"/><path class="st16" d="M378.1 285l-1-1-.7-.7c-.4-.4-.9-.8-1.4-1.2-.2-.2-.5-.4-.7-.6l-1.5-1.2c-.2-.2-.4-.3-.7-.5-.5-.4-1-.8-1.6-1.1-.2-.2-.4-.3-.6-.4-.5-.4-1.1-.7-1.7-1.1-.2-.1-.4-.3-.6-.4-.6-.4-1.2-.7-1.8-1l-.6-.3c-.6-.3-1.2-.7-1.9-1-.2-.1-.3-.2-.5-.3-.7-.3-1.3-.6-2-.9-.2-.1-.3-.1-.5-.2l-2.1-.9c-.1-.1-.3-.1-.4-.2-.7-.3-1.5-.5-2.2-.8-.1 0-.2-.1-.4-.1-.8-.3-1.5-.5-2.3-.7-.1 0-.2-.1-.3-.1l-2.4-.6c-.1 0-.1 0-.2-.1-.8-.2-1.7-.4-2.5-.5h-.1c-.9-.2-1.8-.3-2.7-.4-.9-.1-1.9-.2-2.8-.3.1.1 3.2 6.2 6.2 15.6 8.7 1 18.6 1.4 30 1z"/></g></g><text id="menu-work-text" transform="matrix(.999 0 0 1 312.5 334.254)" class="st7 st8 st9">WORK</text></g><g id="menu-about"><g id="menu-about-globe"><path class="st17" d="M162 217.3c0 33.1-26.9 60-60 60s-60-26.9-60-60 26.9-60 60-60c33.2 0 60 26.9 60 60z"/><path class="st4" d="M162.4 217.3c0-33.1-26.9-60-60-60-5.1 0-10.1.6-14.8 1.9.1.1 70.7 32.8 38.3 113.4 21.4-9.2 36.5-30.5 36.5-55.3z"/><path class="st18" d="M70.7 177.9c-5.8 3.8-5.9 9-3.9 10.2 3.5 2.1 9.9-3.3 13.5-6.5 4.6-4.1-2.3-8.6-9.6-3.7zm-10.8 31.6c-1.1 1.7-.3 4.3 2.2 4.8 3.6.6 5.2-1.7 4.1-4.8-.9-2.9-5-2-6.3 0zm30.3-14.7c-7.9 5.1-10.3 13 0 12 10.3-1.1 17.1-8.4 13.8-12-3-3.1-10-2.4-13.8 0zm22.1-25.6c.1-3.6-4-3.7-7.2-2.8-2.6.8-3.4 5.3 0 5.7 3.9.5 7.1.4 7.2-2.9zm30 20.1c-3.6-3.5-10.3-4.4-13.9-3.7-7 1.4-12.3 7-4.3 9.8s24.3 0 18.2-6.1zm-23.1 28.2c-2.7 1.6-6.2 5.6 0 4.6 5.6-.9 9.6-2.7 9.4-4.4-.3-3-6-2.1-9.4-.2zm-37.4 11.4c-7.7-.8-10.2 2.4-10.6 6.4-.9 8.9 4.3 19.7 10.6 11.1 5.5-7.5 7-16.8 0-17.5zm23.8 16.7c-.5 2.8-1 7.1 3.1 6.1 4.8-1.1 3.7-7 3.1-8.4-1.2-2.2-5.6-1.4-6.2 2.3zm39.4-20.5c-4.6.6-8.3 7.4-8.3 7.4-3.5 7.1-3.4 12.9 4 8.3 7.3-4.6 8-16.3 4.3-15.7zm-57.1 33.5c-2.8 1.4-3.3 6.4 1.3 8.3 2.2.9 9.5-.6 7.9-5.2-1.4-4-7.5-4-9.2-3.1z"/></g><text id="menu-about-text" transform="translate(61.999 222.948)" class="st7 st8 st9">ABOUT US</text></g></svg>