<svg id="Layer_1" xmlns="http://www.w3.org/2000/svg" viewBox="0 0 100 81"><style>.st0,.st1{fill-rule:evenodd;clip-rule:evenodd;fill:#72a4b6}.st1{fill:#3e7187}</style><path id="head-plane-right-wing" class="st0" d="M72.6 31.8c-4.5 4.5-8.7 8.7-13.4 13.9-6.4 7-13.6 13.7-20.2 20.6-2.1 2.2-4.7 6-6.7 7.4-1.8-1.3-1.5-2.5-2.8-4.4-1.2-1.7-2.1-2.9-2.9-4.6L21 54.9c6.8-4.2 70.4-42.8 70.2-45.2l3-.7C87 16.6 79.9 24.3 72.6 31.8"/><path id="head-plane-left-wing" class="st0" d="M14 48.9l1.4-3.3-8.1-14.5c-.5-1-.2-.2-.5-1.1C9.4 28.3 89.6 9.8 91.6 9.7c-1.5 1.3-8.4 4.3-10.5 5.2-3.2 1.4-6 2.8-9.6 4.5L23.3 41.9c-1.7.8-2.9 1.4-4.8 2.2-3 1.3-2.5.8-4.5 4.8"/><path id="head-plane-body" class="st1" d="M21 54.9l-3.3 2.2c-.5.2-.2.1-1 .5-3.2 1.7-5.3 3.8-7.7 4.7-.1 0-.3.1-.4.1-.1 0-.3.1-.4.1l2.2-4.9 3.6-8.7c1.9-4 1.5-3.5 4.5-4.8 1.9-.8 3.1-1.4 4.8-2.2l48.1-22.5c3.6-1.6 6.5-3.1 9.6-4.5 3.7-1.6 6.8-3.6 10.2-5.2.3 2.4-63.3 41-70.2 45.2"/></svg>