<svg id="Layer_1" xmlns="http://www.w3.org/2000/svg" viewBox="0 0 37 42.2"><style>.st0{fill-rule:evenodd;clip-rule:evenodd;fill:#fff}</style><path class="st0" d="M10.6 20.3v1.2c0 2.7 2.4 5.7 4.6 6.2 0-2.4.5-3.2.9-5.1.2-1-.1-.9-.1-1.9 0-2 2.2-2.5 2.2-.6 0 .9-1.6 4 .6 4 1.2 0 2.4-1.7 2.4-2.8 0-1.8.2-2.5-.9-3.4-2.2-1.8-5.8-.1-5.8 2.8 0 1.7.8 1 .4 2.6-1.9-.2-2-3-1.3-4.5 2.1-4.3 9.4-3.2 9.4 1.3 0 2.6-1.3 4.9-3.7 5.1-.6.1-1.7-.2-1.9-.9-.4.3-1.4 3.7-1.4 3.8 1.2.1.6.2 2.6.2 1.8 0 4-1.2 4.8-2.1 4.9-5.4.6-12.6-4.8-12.6h-1.2c-3.4 0-6.8 3.4-6.8 6.7"/><path class="st0" d="M4.3 20.9c0 3.4 1.4 7.1 3.7 9.4 1.1 1.1 2.1 2 3.6 2.8 7 3.5 15.3.9 18.8-6C36.1 15.6 24 3 12.3 8.5c-4.8 2.2-8 7-8 12.4m13.9 12.8c-6.8 0-12.7-5.6-12.7-12.3 0-3.1.7-5.3 2.3-7.6 5.4-7.8 17.6-6.9 21.7 1.9 3.1 6.6 0 14-6.1 16.9-1.1.4-3.7 1.1-5.2 1.1zm113 145.4c0 3.7 1.8 7.5 3.7 9.4 3.8 3.8 6.4 4.3 11.4 4.3 3.3 0 6.5-2.1 8.7-4.2 5.3-5.3 4.9-14.4-.6-19.4L153 168c-6.8-5-16.6-2.7-20.5 5.5-.6 1.2-1.3 3.9-1.3 5.6m13.9 12.7c-11.3 0-17-13.6-9.1-21.5 1.2-1.1 2.1-1.9 3.6-2.6 6.3-3 13.6-.4 16.9 6.1 4 8.3-2.6 18-11.4 18z"/><path class="st0" d="M143.5 175.5v1.8h-2v2.4h2v5.8h2.6v-5.8c2.2 0 1.9.1 2-.9.1-.5.1-.8.1-1.4H146c0-2.6-.2-2.4 2.2-2.4v-2.2c-1.5-.1-4.7-.5-4.7 2.7M247.3 50.8v10.4c0 1 .6 1.6 1.6 1.6h10.6c1 0 1.6-.8 1.6-1.8V51c0-1-.6-1.8-1.6-1.8h-10.9c-.7 0-1.3.8-1.3 1.6m9.6.6c0-.8.5-.6 1.8-.6.8 0 .6.7.6 2.4h-2.4v-1.8zm-3 8.7c3 0 5.1-2.3 4.4-5.2h1v5.6c0 .5-.1.6-.6.6h-9c-.5 0-.6-.1-.6-.6v-5.6h1c-.5 1.1.1 2.8.6 3.5.7.9 1.8 1.7 3.2 1.7zm-2.2-4c0-1.8 1.1-2.8 2.5-2.7 2.6.2 3.1 3 1.7 4.4-1.4 1.3-4.2.5-4.2-1.7z"/><path class="st0" d="M240.6 54.7c0 3.2-.1 4.4 1.4 7.4 1.5 2.9 3.2 4.7 6.1 6.2 3.9 2 8.7 1.8 12.6-.2.7-.4 1.3-.8 1.9-1.3 1.5-1.1 3.4-3.5 4.2-5.4 2.2-5.5 1.2-10.9-2.7-15.2l-1.9-1.5c-.8-.5-1.2-.9-2.1-1.3-6.9-3.2-14.7-.3-18.1 6.1-.5 1.2-1.4 3.8-1.4 5.2m1 1.2c0-1.5.6-3.9 1.1-5 .6-1.4 1.6-2.8 2.6-3.8 3.7-3.7 9-4.8 14.1-2.7 9 3.7 10.8 17.7.1 23-4.8 2.4-10.8.9-14.2-2.5-.6-.6-1-1.1-1.4-1.8-.4-.5-.9-1.4-1.2-2-.5-1.1-1.1-3.6-1.1-5.2z"/></svg>