<svg id="Layer_1" xmlns="http://www.w3.org/2000/svg" viewBox="0 0 240 325"><style>.st0{fill:#72a4b6}.st0,.st1,.st2,.st3,.st4{fill-rule:evenodd;clip-rule:evenodd}.st1{fill:#3e7187}.st2{fill:#d0e4e5}.st3{fill:#fff}.st4{opacity:.4;fill:#fbfcfc}</style><g id="header-rocket-body"><path class="st0" d="M28.5 104.7c12.9-3 46.6-21.6 58.5-31 1.7.6-.8-2.4 1.9 1.3C80 55.8 56.7 26 46.6 21.4l2.4 2c-6.6 6.1-34.5 23-41 21.3 0 9.4 1.2 19 5.4 30.2 2.3 6 9.9 25.5 15.1 29.8"/><path class="st1" d="M32.8 112.4l11 14.8c7.6-12.8 20.1 11 22.4 16 3.4-.7 12.9-3.2 15.1-7.1-3.1-4.7-9.7-18-10.1-23.2 5.2 1.3 12.1 16.5 15.7 21.4l12.7-9.1c-5.5-7.1-14.9-27.5-1-27.5.9-3.7-6.8-19.4-9.5-22.8-2.7-3.8-.1-.7-1.9-1.3-11.9 9.4-48.1 25-61 28.1-.1.5 5.8 9.6 6.6 10.7"/><path class="st1" d="M24.5 55.1c-11.9 28.7 30 44.8 41.2 18.4 4.5-10.7.2-24.3-11.9-29.8-9.4-4.2-23.8-1.9-29.3 11.4"/><path class="st2" d="M29.3 58c-7.9 23.1 24 32.3 31.7 12.5C68.7 50.7 36.6 36.7 29.3 58M7.9 44.6c6.5 1.8 34.4-15.1 41-21.3l-2.4-2C40 16.8 20.4 8.2 14.2 8.6c-4.3 12.8-6.8 24.2-6.3 36M56 175.4c1.9 4.1 4.4 11 9.4 11.6.6-1.9.6-1.8.7-3.7-2.2-2.1-2.3-3.8-3-6.8-.8-3.2-1.4-4.8-1.3-7.9.2-6.2 1-8.4 4.2-15.4 2.3-6.2.3-5.3.2-10-2.2-5-14.7-28.8-22.4-16-2 7.3.9 16.6 3.2 24.5 2.3 8 6.9 16.1 9 23.7m43.4-50.1c3.8 3.8 4.3 3.8 8.6 5.8 13.5-2.5 20.9 13.7 28.5 17.3 1.6-2.5 1.8-3.8-2.2-9.8l-21.5-29.2c-4.5-5.2-8.8-8.6-14.3-11.6-14 0-4.6 20.4.9 27.5"/><path class="st2" d="M65.9 153.2c2.9.3 1.4.3 4.8-.6 2-.6 3.3-1 5.2-1.6 3.8-1.3 6.9-2.6 10.3-5.3l-5-9.6c-2.2 3.9-11.7 6.4-15.1 7.1.1 4.8 2.1 3.8-.2 10m39.7-19.8l2.4-2.4c-4.3-1.9-4.8-2-8.6-5.8l-12.7 9.1 4.9 9.2 14-10.1z"/></g><path class="st3" d="M164.3 199.1c1.6 5.8-45.3-50.4-50.5-54.9m45.8 92.2c.7 7.9-47.6-76.1-53.4-83.3m18.1 130.1c7.2 7.2-39.3-111.9-42-123.7M152 274.7c7.9 6.4-50.7-107.2-54.6-118.7" id="header-rocket-thrust-fire"/><path id="header-rocket-thrust-cloud" class="st4" d="M155.3 205.4c6.4-8.2 18-11.8 27.9-11.1 8.2.5 15.2 6.3 19.3 16.5 2.3 5.7 1.4 6 2.3 12 7.3 1.6 8.8.1 15.2 4.6 10.2 7.2 13.8 22.4 8.1 32.4-2.9 5-6.8 5.3-10.9 7.8 2.9 33.4-30.3 30.6-42.8 9.2 1.1 4-5 10.3-9.5 5.6-8.5 32-33.1 20.2-39.6 16.4-9.4 14.6-36.8 33.7-54.9 8.8-5.7-7.8-4.6-16.2-1.9-23.2-1.7-4.2-4.3-5.8-4.2-12.9.1-5.4 2.5-7 4.3-10-.9-1.4-2.2-4-2.9-5.2-5.8-26.2 13.4-38.7 29.5-36.5-1.9-13.2 27.5-49.3 60.1-14.4"/></svg>