<svg xmlns="http://www.w3.org/2000/svg" viewBox="0 0 240 242"><style>.st0{fill-rule:evenodd;clip-rule:evenodd;fill:#3e7187}.st1{fill:#fff}</style><g id="logo"><path id="logo-outer" class="st0" d="M234.2 120.7c-7.4-5.3-17.4-4.7-22.1-16.3-4.7-11.6 5.2-16.9 10.2-25.7-7.5-5.7-11.7.8-27.3-11.1l2.7-26.3c-12.9 1.6-15.2 3.4-28.9 1.2-5-15.8-3.9-24.7-6-28.6-8.6 3.4-22.4 27.7-37.1 5.7l-6.9-11.4c-6.7 3.6-6.1 6.5-9.1 11.2-3.3 5.3-7 7-12.1 7.6C81.4 28.8 83.5 16.8 73 13.9c-3.2 17.7 1.1 14.1-6.7 28.4-11.9 2.3-16.5.5-28.1-.6 1 12.8 3.5 15.3.5 28.5-10.1 5.5-13 4.9-26.4 5.2 4.8 12.3 14.1 17.3 13.2 25.9-1.1 11-14.9 12-20.9 19.3 4.2 8.5 17.3 10.8 19.8 16.8.9 22.6-11.5 18.6-13.9 30.7 9.9.6 19.8.2 27.6 3.7 3.7 11.9.5 18.3-.4 30 32.9-5.1 30.4-8.5 35.2 26 9.4-3.4 13.1-15.4 26.4-12.7 12 2.5 12 13.7 17.4 22.5 9.5-3.6 6.1-19.2 19.5-22.3C151 211.9 155 226.9 164 229c2-13.8-2.4-23.8 8.8-29.1 11.5-5.7 14.8 2.6 27.6 2.6-10.1-34.8-5.6-32.5 24.3-34.4-1.1-8.4-14.6-14.9-13.7-26.1 1.3-14.4 16.6-12.8 23.2-21.3zm-44.3 12.2c-.8 14 3.8 13.7 8.9 21.4-.5.3-1.2.5-1.6.7l-5.1 1.7c-24.5 6.8-12.5 10.5-10.9 28.8-24.8-7.1-26.1-9.6-27.9 18.4-11.4-3.7-5.8-11.9-24.1-9.5-3.8 2-2.7 9.4-12.6 13.1-6.5-6.7-4.1-10.8-14.7-14.8-9.8.9-9.1 4.7-16.8 8.9-.4-.5-.7-1.3-.9-1.7l-3.4-10.2c-1.4-5.4-1.1-4.2-3.2-9.5l-22.3 2.5c.1-.7.5-1.4.7-1.9 6.8-18.7 2.8-24.2-19.6-23.7 4.9-14.2 11.6-7.2 8.1-25.9L33.4 124c-2.9-2.3-1.6-1.3-3.5-3.4 5.8-5.1 10-6 15.5-12.6-.1-14.5-6.4-10.1-10-22.5 8.4-1.2 16.8 1 20.9-4.2 6.6-6-.5-12.6-.9-22.4 6.9 1 13.8 6.3 20.1 1.9 11.5-7.3 2-10.7 9.5-20.7 5.6 3.4 10.6 11.9 19.8 8 6-2.6 7.8-12.7 13.7-15.9 4.8 7.8 6.1 17.1 15 17.8 7.1.5 12.2-7.9 18.6-11.1 2.3 5.2 1.1 16.5 6.2 20.8 5.5 4.7 13.1 0 21.6-.9-1.3 12.6-3.9 9.3-2 23.6l20.6 2.4c-2.8 13.3-18.4 16.6-4.2 28.9 2.8 2.4 2.1 1.4 5 3.6 2.4 1.8 2.2 1.5 3.9 3.2-3.5 9-6.1 7.7-13.3 12.4z"/><path id="logo-inner" class="st1" d="M116.6 63.8c-28.9 0-52.4 25.1-52.4 56.1S87.7 176 116.6 176s52.4-25.1 52.4-56.1-23.4-56.1-52.4-56.1zm30.3 71c-1.1 18.3-33.8 29.4-52.2-1.6-18.4-31 5.9-52.9 22.1-46.1 10.5 4.4 12.5 9.4 13.2 19.6.7 10.2 18 9.8 16.9 28.1z"/></g></svg>